<?xml version="1.0" encoding="UTF-8"?>
<svg width="65px" height="51px" viewBox="0 0 65 51" version="1.1" xmlns="http://www.w3.org/2000/svg" xmlns:xlink="http://www.w3.org/1999/xlink">
    <!-- Generator: Sketch 53.2 (72643) - https://sketchapp.com -->
    <title>Logo ifb webversion</title>
    <desc>Created with Sketch.</desc>
    <g id="Symbols" stroke="none" stroke-width="1" fill="none" fill-rule="evenodd">
        <g id="Navi-/-ausgeschrieben" transform="translate(-135.000000, -39.000000)" fill="#BF1D2D">
            <g id="Group-9">
                <g id="Group-47" transform="translate(135.000000, 39.000000)">
                    <path d="M48.3938819,47.5963081 C45.9558795,47.4571325 44.6711453,45.4114911 44.2631574,44.4226292 C43.9947282,43.647859 43.8122636,42.6108025 43.8122636,41.4816517 L43.8122636,27.0159874 C49.5671525,22.8975055 56.7590076,28.0170967 56.7590076,36.2006169 C56.7590076,45.1608161 52.0485188,47.5963081 48.3938819,47.5963081 M51.5090648,20.2563519 C48.442132,20.2563519 43.9226585,23.543439 43.9226585,23.543439 C43.9226585,23.543439 43.8122636,22.1583643 43.8122636,21.270345 L43.8122636,5.40672219 C43.8122636,3.70385013 44.2831598,0.863715289 44.2831598,0.863715289 L42.4264485,0.041704937 C41.9149367,0.513470166 41.2869225,0.91827209 40.5891288,1.26438171 C34.669182,-1.51944669 27.9993742,2.08416526 25.8087297,4.16018676 C22.3576287,7.33402471 21.002657,11.2571836 20.2952439,16.3559382 C20.0364342,18.2148459 20.4332757,19.4322738 19.3551311,20.8079641 C18.4621996,21.9442726 16.1956681,22.6216994 16.1956681,22.6216994 L15.7550046,25.4651745 L19.3907079,25.4651745 L19.3907079,43.2537139 C19.3907079,47.5450915 18.9162998,47.2713531 15.7566842,47.7599785 C12.1289207,47.337203 11.5777095,46.9036116 11.5777095,42.4736948 C11.5777095,42.4736948 11.5858021,30.0080223 11.5858021,25.2302462 C11.5858021,24.1776021 12.0362378,20.5814659 12.0362378,20.5814659 L10.1879245,19.7161919 C8.04293434,21.7106167 3.41138635,23.322985 0.244594228,23.739239 L0.244594228,25.9978588 C3.63492461,26.4055238 4.102767,26.2587135 4.102767,30.3501555 L4.10368314,42.5050292 C4.10368314,46.9495793 3.59919514,47.3414976 0.00960420561,47.7631596 L0.00960420561,48.2567158 L-1.52690045e-05,48.2567158 L-1.52690045e-05,50.8048206 L32.0517688,50.8048206 L32.0517688,48.2567158 L32.0517688,47.7631596 C27.5118348,47.268172 26.9703958,47.5565436 26.9703958,43.2537139 L26.9703958,25.4651745 L34.0428473,25.4651745 L35.1657301,22.0102815 L26.9703958,22.0102815 L26.9032122,15.4551943 C26.9032122,8.19564044 29.1749351,3.71466605 32.446778,3.84048072 L32.4806752,6.32321283 C36.2070764,6.74773792 36.3417491,6.81899578 36.3417491,10.9804232 L36.3417491,39.5599162 C36.3417491,45.7510793 35.6634998,50.7628294 35.6634998,50.7628294 C40.3248223,49.039916 44.5828904,50.8569915 47.7658677,50.946382 C57.7905817,51.222029 64.2805206,44.389068 64.2805206,34.0207307 C64.2805206,26.0490754 58.8910191,20.2563519 51.5090648,20.2563519 M7.46042171,16.6128165 C9.99690921,16.6128165 11.8821735,14.4456549 11.8821735,11.8705102 C11.8821735,9.16127992 9.99690921,7.0631494 7.52271926,7.0631494 L7.46042171,7.0631494 C5.11846137,7.0631494 3.10417392,9.16127992 3.10417392,11.8705102 C3.10417392,14.4456549 5.11846137,16.6128165 7.46042171,16.6128165" id="Logo-ifb-webversion"></path>
                </g>
            </g>
        </g>
    </g>
</svg>